<svg xmlns="http://www.w3.org/2000/svg" version="1.1" xmlns:xlink="http://www.w3.org/1999/xlink" xmlns:svgjs="http://svgjs.dev/svgjs" width="2000" height="1247" viewBox="0 0 2000 1247"><g transform="matrix(1,0,0,1,-1.2121212121212466,0.504858299595071)"><svg viewBox="0 0 396 247" data-background-color="#ffffff" preserveAspectRatio="xMidYMid meet" height="1247" width="2000" xmlns="http://www.w3.org/2000/svg" xmlns:xlink="http://www.w3.org/1999/xlink"><g id="tight-bounds" transform="matrix(1,0,0,1,0.2400000000000091,-0.09999999999999432)"><svg viewBox="0 0 395.52 247.2" height="247.2" width="395.52"><g><svg></svg></g><g><svg viewBox="0 0 395.52 247.2" height="247.2" width="395.52"><g transform="matrix(1,0,0,1,75.54432,94.81946350665054)"><svg viewBox="0 0 244.43135999999998 57.56107298669891" height="57.56107298669891" width="244.43135999999998"><g><svg viewBox="0 0 244.43135999999998 57.56107298669891" height="57.56107298669891" width="244.43135999999998"><g><svg viewBox="0 0 244.43135999999998 57.56107298669891" height="57.56107298669891" width="244.43135999999998"><g><svg viewBox="0 0 244.43135999999998 57.56107298669891" height="57.56107298669891" width="244.43135999999998"><g id="textblocktransform"><svg viewBox="0 0 244.43135999999998 57.56107298669891" height="57.56107298669891" width="244.43135999999998" id="textblock"><g><svg viewBox="0 0 244.43135999999998 57.56107298669891" height="57.56107298669891" width="244.43135999999998"><g transform="matrix(1,0,0,1,0,0)"><svg width="244.43135999999998" viewBox="3.75 -38.5 165.38999938964844 38.95000076293945" height="57.56107298669891" data-palette-color="#ee3e38"><path d="M32.3-34.8L32.3 0 26.6 0 9.45-25.95 9.45 0 3.75 0 3.75-34.8 9.45-34.8 26.6-8.9 26.6-34.8 32.3-34.8ZM42.7-31.2Q41.15-31.2 40.1-32.25 39.05-33.3 39.05-34.85L39.05-34.85Q39.05-36.4 40.1-37.45 41.15-38.5 42.7-38.5L42.7-38.5Q44.2-38.5 45.25-37.45 46.3-36.4 46.3-34.85L46.3-34.85Q46.3-33.3 45.25-32.25 44.2-31.2 42.7-31.2L42.7-31.2ZM39.8-27.55L45.5-27.55 45.5 0 39.8 0 39.8-27.55ZM63 0.45Q59.75 0.45 57.17-0.73 54.6-1.9 53.1-3.93 51.6-5.95 51.5-8.45L51.5-8.45 57.4-8.45Q57.55-6.7 59.07-5.53 60.6-4.35 62.9-4.35L62.9-4.35Q65.3-4.35 66.62-5.28 67.95-6.2 67.95-7.65L67.95-7.65Q67.95-9.2 66.47-9.95 65-10.7 61.8-11.6L61.8-11.6Q58.7-12.45 56.75-13.25 54.8-14.05 53.37-15.7 51.95-17.35 51.95-20.05L51.95-20.05Q51.95-22.25 53.25-24.08 54.55-25.9 56.97-26.95 59.4-28 62.55-28L62.55-28Q67.25-28 70.12-25.63 73-23.25 73.2-19.15L73.2-19.15 67.5-19.15Q67.35-21 66-22.1 64.65-23.2 62.35-23.2L62.35-23.2Q60.1-23.2 58.9-22.35 57.7-21.5 57.7-20.1L57.7-20.1Q57.7-19 58.5-18.25 59.3-17.5 60.45-17.07 61.6-16.65 63.85-16L63.85-16Q66.85-15.2 68.77-14.38 70.7-13.55 72.1-11.95 73.5-10.35 73.55-7.7L73.55-7.7Q73.55-5.35 72.25-3.5 70.95-1.65 68.57-0.6 66.2 0.45 63 0.45L63 0.45ZM93.94-28Q97.09-28 99.57-26.65 102.04-25.3 103.47-22.65 104.89-20 104.89-16.25L104.89-16.25 104.89 0 99.24 0 99.24-15.4Q99.24-19.1 97.39-21.08 95.54-23.05 92.34-23.05L92.34-23.05Q89.14-23.05 87.27-21.08 85.39-19.1 85.39-15.4L85.39-15.4 85.39 0 79.69 0 79.69-37 85.39-37 85.39-24.35Q86.84-26.1 89.07-27.05 91.29-28 93.94-28L93.94-28ZM115.04-31.2Q113.49-31.2 112.44-32.25 111.39-33.3 111.39-34.85L111.39-34.85Q111.39-36.4 112.44-37.45 113.49-38.5 115.04-38.5L115.04-38.5Q116.54-38.5 117.59-37.45 118.64-36.4 118.64-34.85L118.64-34.85Q118.64-33.3 117.59-32.25 116.54-31.2 115.04-31.2L115.04-31.2ZM112.14-27.55L117.84-27.55 117.84 0 112.14 0 112.14-27.55ZM138.69-22.9L131.99-22.9 131.99-7.65Q131.99-6.1 132.71-5.43 133.44-4.75 135.19-4.75L135.19-4.75 138.69-4.75 138.69 0 134.19 0Q130.34 0 128.29-1.8 126.24-3.6 126.24-7.65L126.24-7.65 126.24-22.9 122.99-22.9 122.99-27.55 126.24-27.55 126.24-34.4 131.99-34.4 131.99-27.55 138.69-27.55 138.69-22.9ZM158.19-28Q161.34-28 163.81-26.65 166.29-25.3 167.71-22.65 169.14-20 169.14-16.25L169.14-16.25 169.14 0 163.49 0 163.49-15.4Q163.49-19.1 161.64-21.08 159.79-23.05 156.59-23.05L156.59-23.05Q153.39-23.05 151.51-21.08 149.64-19.1 149.64-15.4L149.64-15.4 149.64 0 143.94 0 143.94-37 149.64-37 149.64-24.35Q151.09-26.1 153.31-27.05 155.54-28 158.19-28L158.19-28Z" opacity="1" transform="matrix(1,0,0,1,0,0)" fill="#ee3e38" class="wordmark-text-0" data-fill-palette-color="primary" id="text-0"></path></svg></g></svg></g></svg></g></svg></g></svg></g></svg></g></svg></g><g><path d="M0 123.6c0-68.262 55.338-123.6 123.6-123.6 55.896 0 103.126 37.104 118.404 88.025l-2.713 0c-15.193-49.468-61.242-85.43-115.691-85.43-66.829 0-121.005 54.176-121.005 121.005 0 66.829 54.176 121.005 121.005 121.005 54.448 0 100.497-35.962 115.691-85.43l2.713 0c-15.278 50.921-62.508 88.025-118.404 88.025-68.262 0-123.6-55.338-123.6-123.6z" fill="#ee3e38" stroke="transparent" data-fill-palette-color="tertiary"></path></g></svg></g><defs></defs></svg><rect width="395.52" height="247.2" fill="none" stroke="none" visibility="hidden"></rect></g></svg></g></svg>